<svg xmlns="http://www.w3.org/2000/svg" xml:space="preserve" width="655.359" height="655.359" style="shape-rendering:geometricPrecision;text-rendering:geometricPrecision;image-rendering:optimizeQuality;fill-rule:evenodd;clip-rule:evenodd" viewBox="0 0 6.827 6.827" id="muslim">
  <path d="M2.756 2.318c.065.189.16.375.262.538l.028.044-.05.018c-.343.119-.706.152-1.065.104-.201-.026-.415-.08-.602-.16l-.024-.011v-.027c-.006-.14.022-.284.062-.418.058-.192.146-.38.248-.552.119-.2.262-.391.424-.557.135-.138.293-.27.466-.355.139-.068.3-.112.454-.071.112 0 .29.113.383.206a.785.785 0 0 1 .155.355.981.981 0 0 1-.015.408.79.79 0 0 1-.041.12.685.685 0 0 1-.245.302.49.49 0 0 1-.44.056zm-.066-.255c.122.018.263.057.368-.012a.435.435 0 0 0 .152-.19.729.729 0 0 0 .039-.385.633.633 0 0 0-.13-.312c-.215.105-.378.268-.43.516a.944.944 0 0 0 0 .383zM3.11 4.7c.006.01.03.024.041.024.309 0 1.105-.062 1.35.091.13.082.23.214.274.361.036.12.04.271-.047.371a.246.246 0 0 1-.062.051l-.007.004-.008.001a.041.041 0 0 0-.021.01l-.006.005-.008.003a.332.332 0 0 1-.104.015H1.229v-.042c0-.866.035-1.73.073-2.594l.003-.059.054.021c.261.1.553.156.832.162h.02l.012.017c.039.05.075.102.111.154.049.07.097.138.148.205.058.076.12.152.19.217a.47.47 0 0 0 .28.133l.033.002.126.844-.001.004zm-.158-1.41a.18.18 0 0 0 .063-.004l.458-.404V3.6l-.027.01-.121.053c-.079.035-.163.073-.247.093a.378.378 0 0 1-.174.003.39.39 0 0 1-.176-.101 1.836 1.836 0 0 1-.206-.242 7.686 7.686 0 0 1-.12-.168l-.042-.06-.043-.062.075-.004c.121-.007.242-.024.36-.05l.03-.006.016.027c.017.03.035.06.054.088.028.04.061.081.1.11zm.62-.348a.502.502 0 0 1 .122-.074c.039-.014.085-.02.116.012a.199.199 0 0 1 0 .282l-.253.253v-.46l.016-.013zm.94 2.778a.425.425 0 0 0 .168-.031l.008-.004 1.275-.038v.324h-5.1v-.325h.278l.004.037c.003.021.02.037.042.037h3.325z" style="fill:#000"></path>
  <path d="M0 0h6.827v6.827H0z" style="fill:none"></path>
</svg>
